<svg width="190" height="47" viewBox="0 0 190 47" fill="none" xmlns="http://www.w3.org/2000/svg">
<path d="M25.4503 40.7339C24.8629 41.0052 24.2551 41.2301 23.6325 41.4064C23.3986 41.5212 23.1919 41.6843 23.026 41.8849C22.8601 42.0855 22.7388 42.319 22.6701 42.5699C22.4883 43.1677 22.6701 43.6374 23.2261 43.6374C24.0923 43.6374 24.7232 42.9756 25.0654 41.9188L25.4503 40.7339ZM26.0919 43.0396C26.0064 43.3065 26.0919 43.552 26.3058 43.552C26.3873 43.565 26.4703 43.565 26.5518 43.552L26.2523 44.4807C26.0134 44.5896 25.7556 44.6512 25.4931 44.6621C24.8515 44.6621 24.4238 44.406 24.5735 43.7121C24.3222 44.0411 23.9989 44.3084 23.6282 44.4934C23.2575 44.6784 22.8493 44.7763 22.4348 44.7796C21.2906 44.7796 20.7666 44.1391 21.2051 42.7621C21.3333 42.1897 21.6298 41.6686 22.0565 41.2654C22.4833 40.8623 23.0208 40.5954 23.6004 40.4991L24.8194 40.1895C25.3862 40.0401 25.7605 39.8906 25.9636 39.2715C26.1668 38.6524 26.0813 38.204 25.3113 38.204C24.3489 38.204 23.996 38.8872 23.7715 39.5811H22.392C22.5351 38.8419 22.9505 38.183 23.5562 37.7344C24.1619 37.2859 24.914 37.0802 25.6642 37.1579C26.9367 37.1579 27.8029 37.649 27.3965 38.9192L26.0919 43.0396Z" fill="#003EAB"/>
<path d="M35.9832 43.4241C35.7109 43.8376 35.3369 44.1745 34.8969 44.4025C34.457 44.6305 33.9658 44.742 33.4703 44.7264C31.3316 44.7264 31.1284 43.1679 32.2085 39.7627C33.2885 36.3576 34.7642 34.7991 36.967 34.7991C39.3623 34.7991 39.1699 36.6885 38.8918 37.5531L38.8277 37.7239H37.3627L37.4375 37.4997C37.6621 36.7952 37.63 35.9519 36.5821 35.9519C35.5341 35.9519 34.7 36.6778 33.7376 39.72C32.7752 42.7623 33.0105 43.5735 34.037 43.5735C35.0636 43.5735 35.8977 42.7409 36.5714 40.6594H34.9674L35.2882 39.4959H38.3358L36.7852 44.5343H35.6303L35.9832 43.4241Z" fill="#003EAB"/>
<path d="M40.5386 37.3609H41.9822L41.6294 38.4283C41.8507 38.0522 42.1618 37.7364 42.5349 37.5092C42.9081 37.282 43.3316 37.1504 43.768 37.126C43.8775 37.1045 43.9901 37.1045 44.0995 37.126L43.629 38.5991C43.4418 38.5425 43.2472 38.5137 43.0516 38.5137C42.5857 38.5195 42.1361 38.6849 41.7778 38.9823C41.4196 39.2796 41.1747 39.6908 41.084 40.1469L39.7152 44.4168H38.2502L40.5386 37.3609Z" fill="#003EAB"/>
<path d="M45.8638 34.8844H47.3074L46.8583 36.2934H45.4147L45.8638 34.8844ZM45.0725 37.3609H46.5268L44.2384 44.5555H42.7734L45.0725 37.3609Z" fill="#003EAB"/>
<path d="M48.302 37.361H49.6708L49.4034 38.2043C49.6542 37.8956 49.9659 37.6415 50.319 37.4579C50.6722 37.2743 51.0594 37.165 51.4566 37.1368C52.5259 37.1368 52.7612 37.6279 52.7826 38.2043C53.0401 37.8821 53.3647 37.6197 53.7341 37.4353C54.1034 37.251 54.5085 37.1491 54.9212 37.1368C55.9906 37.1368 56.5145 37.6599 56.0761 39.0476L54.3331 44.5129H52.9536L54.5363 39.6027C54.8357 38.6633 54.6753 38.3004 54.0765 38.3004C53.6968 38.3398 53.339 38.4969 53.0532 38.7496C52.7675 39.0023 52.5682 39.3379 52.4831 39.7094L50.9433 44.5343H49.489L51.0502 39.6027C51.3496 38.6633 51.1892 38.3004 50.5904 38.3004C50.2126 38.3419 49.8572 38.5 49.5736 38.7525C49.29 39.005 49.0922 39.3395 49.0078 39.7094L47.4679 44.5343H45.9816L48.302 37.361Z" fill="#003EAB"/>
<path d="M60.6849 40.734C60.1005 41.0035 59.4963 41.2283 58.8778 41.4065C58.6411 41.519 58.4317 41.6812 58.2637 41.882C58.0957 42.0828 57.9733 42.3175 57.9047 42.57C57.7229 43.1678 57.9047 43.6375 58.4607 43.6375C59.3376 43.6375 59.9685 42.9757 60.3 41.9189L60.6849 40.734ZM61.3265 43.0397C61.241 43.3066 61.3266 43.5521 61.5404 43.5521C61.6218 43.566 61.705 43.566 61.7864 43.5521L61.487 44.4808C61.2488 44.5921 60.9905 44.6539 60.7277 44.6622C60.0861 44.6622 59.6584 44.4061 59.8188 43.7122C59.5681 44.0418 59.2448 44.3095 58.874 44.4946C58.5032 44.6797 58.0947 44.7772 57.6801 44.7797C56.5252 44.7797 56.0012 44.1392 56.4397 42.7622C56.557 42.1829 56.8461 41.6523 57.2695 41.2392C57.6928 40.8261 58.2308 40.5497 58.8136 40.4458L60.0433 40.1362C60.5994 39.9868 60.9844 39.8373 61.1768 39.2182C61.3693 38.5991 61.2945 38.1508 60.5352 38.1508C59.5621 38.1508 59.2093 38.8339 58.9954 39.5278H57.6266C57.7818 38.7882 58.21 38.134 58.8261 37.6949C59.4422 37.2559 60.2012 37.0643 60.9523 37.158C62.2248 37.158 63.091 37.6491 62.6846 38.9193L61.3265 43.0397Z" fill="#003EAB"/>
<path d="M65.6787 34.9912H67.133L64.0854 44.5342H62.6418L65.6787 34.9912Z" fill="#003EAB"/>
<path d="M70.1593 38.3001C69.3252 38.3001 68.8119 38.9726 68.2024 40.9154C67.6891 42.5486 67.5608 43.5734 68.566 43.5734C69.5712 43.5734 70.1058 42.5059 70.6084 41.0221C71.1538 39.2929 71.2714 38.3001 70.1593 38.3001ZM69.7636 43.6374C69.5609 43.9646 69.2775 44.2346 68.9405 44.4214C68.6036 44.6083 68.2243 44.7059 67.8388 44.7049C66.1493 44.7049 65.9247 43.2958 66.716 40.8193C67.7854 37.617 69.0151 37.1366 70.1058 37.1366C70.2634 37.1142 70.4239 37.1246 70.5773 37.1671C70.7307 37.2095 70.8736 37.2832 70.9972 37.3834C71.1207 37.4837 71.2221 37.6083 71.295 37.7495C71.368 37.8908 71.4109 38.0455 71.4211 38.2041L72.4905 35.0017H73.8913L70.8544 44.5447H69.507L69.7636 43.6374Z" fill="#003EAB"/>
<path d="M75.6342 34.8843H77.0778L76.6287 36.2933H75.1851L75.6342 34.8843ZM74.8536 37.3608H76.2972L74.0088 44.5554H72.5652L74.8536 37.3608Z" fill="#003EAB"/>
<path d="M84.3708 43.4241C84.0992 43.8383 83.7253 44.1758 83.2852 44.4039C82.8451 44.632 82.3535 44.743 81.8578 44.7264C79.7192 44.7264 79.5267 43.1679 80.6067 39.7627C81.6867 36.3576 83.1517 34.7991 85.3546 34.7991C87.7606 34.7991 87.5574 36.6885 87.2794 37.5531L87.2152 37.7239H85.7502L85.8251 37.4997C86.0496 36.7952 86.0176 35.9519 84.9696 35.9519C83.9216 35.9519 83.0876 36.6778 82.1252 39.72C81.1628 42.7623 81.398 43.5735 82.4353 43.5735C83.4725 43.5735 84.2852 42.7409 84.9589 40.6594H83.4084L83.7185 39.4959H86.7661L85.1728 44.5236H84.0179L84.3708 43.4241Z" fill="#003EAB"/>
<path d="M88.9261 37.3608H90.3697L90.0168 38.4282C90.2389 38.0527 90.5502 37.7374 90.9232 37.5103C91.2961 37.2832 91.7194 37.1512 92.1555 37.1259C92.2648 37.1032 92.3777 37.1032 92.487 37.1259L91.963 38.6844C91.7758 38.6278 91.5812 38.599 91.3856 38.599C90.9198 38.6048 90.4701 38.7702 90.1119 39.0676C89.7537 39.3649 89.5087 39.7761 89.418 40.2322L88.0599 44.502H86.6163L88.9261 37.3608Z" fill="#003EAB"/>
<path d="M93.7918 43.6482C94.8611 43.6482 95.3209 42.7729 95.9304 40.9369C96.433 39.3464 96.6041 38.2255 95.5455 38.2255C94.4868 38.2255 93.9522 39.293 93.4068 40.9369C92.8294 42.7729 92.7331 43.6482 93.7811 43.6482H93.7918ZM95.8449 37.1581C97.9835 37.1581 98.0584 38.7059 97.3419 40.9369C96.6255 43.1678 95.4492 44.7263 93.4389 44.7263C91.4285 44.7263 91.3002 43.1678 91.9632 40.9369C92.6262 38.7059 93.7597 37.1581 95.8449 37.1581Z" fill="#003EAB"/>
<path d="M101.512 43.6908C101.25 44.0074 100.924 44.2658 100.556 44.4496C100.187 44.6334 99.7849 44.7385 99.3737 44.7583C98.3043 44.7583 97.7376 44.2566 98.3043 42.3992L99.8549 37.3608H101.298L99.6624 42.506C99.4164 43.3066 99.6624 43.5734 100.293 43.5734C100.649 43.5661 100.992 43.4448 101.273 43.2277C101.555 43.0105 101.758 42.7088 101.855 42.3672L103.459 37.3608H104.902L102.657 44.5341H101.256L101.512 43.6908Z" fill="#003EAB"/>
<path d="M107.169 43.5735C108.003 43.5735 108.57 42.9544 109.212 40.9689C109.735 39.3357 109.842 38.3003 108.837 38.3003C107.832 38.3003 107.297 39.3677 106.795 40.8622C106.249 42.5808 106.153 43.5735 107.169 43.5735ZM106.549 37.3609H107.918L107.64 38.2469C107.864 37.9304 108.158 37.6695 108.499 37.4845C108.84 37.2994 109.219 37.195 109.607 37.1794C111.254 37.1794 111.479 38.5778 110.677 41.0543C109.714 44.0752 108.26 44.7477 107.276 44.7477C107.119 44.7685 106.959 44.757 106.806 44.7139C106.653 44.6708 106.511 44.597 106.388 44.497C106.265 44.3971 106.163 44.2731 106.09 44.1326C106.016 43.9922 105.972 43.8382 105.961 43.6802L104.956 46.8826H103.523L106.549 37.3609Z" fill="#003EAB"/>
<path d="M120.129 41.9188C119.488 43.6374 118.557 44.7262 116.772 44.7262C114.633 44.7262 114.633 43.1677 115.296 40.9367C115.959 38.7058 117.082 37.158 119.178 37.158C121.274 37.158 121.124 38.8445 120.835 39.7305H119.381C119.605 39.0687 119.691 38.1934 118.835 38.2254C117.766 38.2254 117.242 39.2929 116.697 40.9367C116.151 42.5806 116.023 43.6481 117.071 43.6481C117.873 43.6481 118.365 42.9969 118.728 41.9188H120.129Z" fill="#003EAB"/>
<path d="M123.316 43.6482C124.386 43.6482 124.835 42.7729 125.455 40.9369C125.957 39.3464 126.129 38.2255 125.07 38.2255C124.011 38.2255 123.477 39.293 122.931 40.9369C122.354 42.7729 122.258 43.6482 123.305 43.6482H123.316ZM125.369 37.1581C127.508 37.1581 127.572 38.7059 126.856 40.9369C126.139 43.1678 124.984 44.7263 122.974 44.7263C120.964 44.7263 120.835 43.1678 121.498 40.9369C122.161 38.7059 123.284 37.1581 125.38 37.1581" fill="#003EAB"/>
<path d="M129.443 37.361H130.812L130.545 38.2043C130.795 37.8951 131.107 37.6407 131.46 37.457C131.813 37.2734 132.201 37.1644 132.598 37.1368C133.667 37.1368 133.892 37.6279 133.924 38.2043C134.18 37.881 134.505 37.6178 134.874 37.4334C135.244 37.2489 135.65 37.1477 136.063 37.1368C137.078 37.1368 137.645 37.6599 137.207 39.0476L135.464 44.5129H134.095L135.656 39.5813C135.956 38.642 135.795 38.279 135.207 38.279C134.834 38.3302 134.486 38.4951 134.211 38.7511C133.935 39.0071 133.745 39.3417 133.667 39.7094L132.127 44.5343H130.684L132.245 39.6027C132.544 38.6633 132.384 38.3004 131.775 38.3004C131.397 38.3419 131.041 38.5 130.758 38.7525C130.474 39.005 130.276 39.3395 130.192 39.7094L128.652 44.5343H127.208L129.443 37.361Z" fill="#003EAB"/>
<path d="M140.158 43.5734C140.981 43.5734 141.559 42.9543 142.2 40.9688C142.714 39.3356 142.831 38.3001 141.826 38.3001C140.821 38.3001 140.286 39.3676 139.784 40.862C139.238 42.5806 139.142 43.5734 140.158 43.5734ZM139.538 37.3608H140.906L140.628 38.2468C140.853 37.9303 141.147 37.6694 141.488 37.4843C141.829 37.2993 142.208 37.1949 142.596 37.1793C144.243 37.1793 144.467 38.5777 143.665 41.0542C142.703 44.0751 141.249 44.7476 140.265 44.7476C140.108 44.7684 139.948 44.7568 139.795 44.7137C139.642 44.6706 139.5 44.5969 139.377 44.4969C139.254 44.397 139.152 44.273 139.079 44.1325C139.005 43.9921 138.961 43.8381 138.95 43.6801L137.944 46.8825H136.501L139.538 37.3608Z" fill="#003EAB"/>
<path d="M148.52 40.7341C147.933 41.0054 147.325 41.2302 146.703 41.4066C146.467 41.5197 146.26 41.6822 146.094 41.8831C145.927 42.0839 145.807 42.3183 145.74 42.5701C145.558 43.1679 145.74 43.6376 146.296 43.6376C147.162 43.6376 147.793 42.9757 148.135 41.919L148.52 40.7341ZM149.162 43.0398C149.076 43.3067 149.162 43.5522 149.376 43.5522C149.457 43.5651 149.54 43.5651 149.622 43.5522L149.322 44.4809C149.083 44.5898 148.826 44.6514 148.563 44.6623C147.922 44.6623 147.494 44.4061 147.644 43.7123C147.392 44.0413 147.069 44.3086 146.698 44.4936C146.328 44.6786 145.919 44.7765 145.505 44.7797C144.35 44.7797 143.837 44.1393 144.275 42.7623C144.403 42.1899 144.7 41.6688 145.127 41.2656C145.553 40.8625 146.091 40.5956 146.67 40.4993L147.889 40.1897C148.456 40.0402 148.831 39.8908 149.034 39.2717C149.237 38.6526 149.151 38.2042 148.381 38.2042C147.419 38.2042 147.066 38.8874 146.842 39.5812H145.43C145.587 38.8539 146.008 38.2103 146.612 37.7746C147.217 37.339 147.961 37.1422 148.702 37.2222C149.975 37.2222 150.841 37.7132 150.435 38.9835L149.162 43.0398Z" fill="#003EAB"/>
<path d="M152.691 37.361H154.06L153.792 38.2043C154.054 37.8873 154.38 37.6285 154.749 37.4447C155.117 37.2608 155.52 37.156 155.931 37.1368C157 37.1368 157.567 37.6279 157.107 39.0903L155.386 44.5129H153.985L155.557 39.5813C155.856 38.642 155.685 38.279 154.969 38.279C154.589 38.3185 154.231 38.4756 153.945 38.7282C153.66 38.9809 153.46 39.3166 153.375 39.6881L151.846 44.5343H150.392L152.691 37.361Z" fill="#003EAB"/>
<path d="M160.401 37.3608L159.877 42.6981L162.775 37.3608H164.293L159.941 44.833C158.754 46.7971 158.198 47.0533 156.733 47.032C156.529 47.024 156.325 47.0026 156.123 46.9679L156.487 45.8151C156.635 45.8434 156.785 45.8612 156.936 45.8684C157.163 45.8936 157.391 45.8537 157.596 45.7535C157.801 45.6533 157.972 45.4969 158.091 45.3027L158.465 44.7156L158.797 37.3608H160.401Z" fill="#003EAB"/>
<path d="M31.0429 30.9455L35.5127 17.8692H45.233L47.3503 11.6779H37.6193L39.5013 6.19123H50.0664L52.1837 0H33.8018L23.226 30.9455H31.0429Z" fill="#003EAB"/>
<path d="M59.5942 5.57211L61.4977 0H54.44L52.5366 5.57211H59.5942ZM50.9326 30.9562L58.8136 7.84579H51.756L43.8429 30.9562H50.9326Z" fill="#003EAB"/>
<path d="M63.4011 7.83518L55.5093 30.9562H62.567L68.2024 14.4534C68.3615 13.9012 68.6976 13.4163 69.1592 13.0731C69.6209 12.7299 70.1825 12.5473 70.7581 12.5533C72.1162 12.4679 72.2552 13.3753 71.9772 14.4534L66.299 30.9562H73.3566L79.7726 12.0196C80.842 8.88128 78.4467 7.1947 75.1103 7.1947C72.8968 7.1947 70.2448 8.96668 68.9723 10.7387H68.8868L69.8706 7.84585L63.4011 7.83518Z" fill="#003EAB"/>
<path d="M85.6112 7.83518L77.7195 30.9562H84.7771L90.4125 14.4534C90.5716 13.9012 90.9077 13.4163 91.3694 13.0731C91.831 12.7299 92.3927 12.5473 92.9683 12.5533C94.337 12.4679 94.4653 13.3753 94.1873 14.4534L88.5519 30.9562H95.6095L102.026 12.0196C103.095 8.88128 100.7 7.1947 97.3739 7.1947C95.1497 7.1947 92.4977 8.96668 91.2359 10.7387H91.1397L92.1235 7.84585L85.6112 7.83518Z" fill="#003EAB"/>
<path d="M107.019 30.9455L117.595 0H110.537L99.9617 30.9455H107.019Z" fill="#003EAB"/>
<path d="M127.123 5.57211L129.026 0H121.969L120.065 5.57211H127.123ZM118.461 30.9562L126.353 7.85646H119.295L111.404 30.9562H118.461Z" fill="#003EAB"/>
<path d="M131.154 7.83505L123.263 30.9561H130.32L135.956 14.4533C136.118 13.9011 136.457 13.4169 136.92 13.0741C137.383 12.7312 137.945 12.5484 138.522 12.5532C139.88 12.4678 140.008 13.3751 139.73 14.4533L134.095 30.9561H141.153L147.622 12.0195C148.691 8.88116 146.296 7.19458 142.97 7.19458C140.746 7.19458 138.105 8.96655 136.832 10.7385H136.736L137.731 7.84573L131.154 7.83505Z" fill="#003EAB"/>
<path d="M167.116 20.0041L169.372 13.4073C171.083 8.41159 167.095 6.68231 162.154 6.72501C156.679 6.72501 151.974 8.6998 149.953 14.6455L146.745 24.0498C144.938 29.3337 148.724 31.2765 153.792 31.2338C159.952 31.1484 164.347 28.4264 166.015 22.4806H159C158.209 24.4234 157.727 26.6117 155.15 26.4836C153.621 26.4089 153.364 25.3307 153.803 24.0498L155.182 20.0041H167.116ZM156.658 15.7343L157.182 14.2079C157.727 12.596 158.722 11.1122 160.721 11.1122C162.539 11.1122 162.593 12.6387 162.315 13.4606L161.534 15.7343H156.658Z" fill="#003EAB"/>
<path d="M189.401 14.2291C191.412 9.11603 188.097 6.75696 182.985 6.75696C178.055 6.75696 173.062 8.89187 171.361 13.8876C171.068 14.5824 170.941 15.3362 170.991 16.0887C171.041 16.8412 171.267 17.5715 171.65 18.2214C173.072 20.5805 176.676 21.5625 179.039 22.9716C179.261 23.2026 179.411 23.4934 179.47 23.8082C179.529 24.123 179.494 24.4481 179.371 24.7436C179.146 25.4214 178.701 26.0049 178.106 26.4014C177.512 26.7979 176.801 26.9846 176.088 26.9318C173.949 26.9318 174.11 25.0745 174.741 23.4626H167.993C165.854 29.0347 168.977 31.2657 174.569 31.2657C179.766 31.2657 184.728 29.0774 186.493 23.9216C188.364 18.4349 183.819 17.3141 179.905 15.382C179.007 14.8803 178.109 14.2612 178.537 13.0229C178.753 12.4121 179.166 11.8906 179.713 11.5407C180.259 11.1908 180.906 11.0325 181.552 11.0908C183.809 11.0908 183.178 12.692 182.814 14.2932L189.401 14.2291Z" fill="#003EAB"/>
<path d="M0 7.92041H28.3054L26.4447 13.1936H4.69439L0 7.92041Z" fill="#003EAB"/>
<path d="M6.71533 15.5847H25.6854L23.8996 20.8046H16.2431L19.0769 23.9963L21.7716 26.9318L20.3922 31.0094L6.71533 15.5847Z" fill="#003EAB"/>
<path d="M180.879 38.5032H167.822V39.6881H180.879V38.5032Z" fill="#003EAB"/>
<path d="M179.691 42.6982H166.293V43.8831H179.691V42.6982Z" fill="#003EAB"/>
</svg>
